<?xml version="1.0" encoding="iso-8859-1"?>
<!-- Generator: Adobe Illustrator 19.0.0, SVG Export Plug-In . SVG Version: 6.00 Build 0)  -->
<svg version="1.1" id="Layer_1" xmlns="http://www.w3.org/2000/svg" xmlns:xlink="http://www.w3.org/1999/xlink" x="0px" y="0px"
	 viewBox="0 0 496.2 496.2" style="enable-background:new 0 0 496.2 496.2;" xml:space="preserve">
<path style="fill:#FABC3D;" d="M496.2,248.1C496.2,111.1,385.1,0,248.1,0S0,111.1,0,248.1s111.1,248.1,248.1,248.1
	S496.2,385.1,496.2,248.1z"/>
<rect x="97.2" y="138.3" style="fill:#AD8355;" width="301.8" height="232"/>
<rect x="97.2" y="125.9" style="fill:#685746;" width="301.8" height="12.5"/>
<rect x="133.4" y="166.1" style="fill:#4C433B;" width="229.5" height="176.4"/>
<polygon style="fill:#826D5A;" points="362.8,323.2 133.4,323.2 154.4,281.2 341.8,281.2 "/>
<g>
	<polygon style="fill:#66594F;" points="133.4,323.2 154.4,281.2 133.4,281.2 	"/>
	<rect x="133.4" y="166.1" style="fill:#66594F;" width="21.1" height="115.1"/>
	<polygon style="fill:#66594F;" points="362.9,323.2 341.9,281.2 362.9,281.2 	"/>
	<rect x="341.9" y="166.1" style="fill:#66594F;" width="21.1" height="115.1"/>
</g>
<rect x="133.4" y="323.2" style="fill:#685746;" width="229.5" height="19.4"/>
<g>
	
		<line style="fill:none;stroke:#AD8355;stroke-width:14;stroke-linecap:round;stroke-linejoin:round;stroke-miterlimit:10;" x1="212.5" y1="280.4" x2="283.7" y2="320.6"/>
	
		<line style="fill:none;stroke:#AD8355;stroke-width:14;stroke-linecap:round;stroke-linejoin:round;stroke-miterlimit:10;" x1="203.1" y1="298.9" x2="293.1" y2="298.9"/>
	
		<line style="fill:none;stroke:#AD8355;stroke-width:14;stroke-linecap:round;stroke-linejoin:round;stroke-miterlimit:10;" x1="283.7" y1="280.4" x2="212.5" y2="320.6"/>
</g>
<path style="fill:#E17A2D;" d="M232.6,231.7c5-13.1,4.1-33,4.1-33s13.4,5.6,22.7,21.1c8.7,14.5,0.5,36.2,0.5,36.2
	c6.4-6.4,8.8-12.8,9-20.6c7.2,11.5,12.8,24.7,12.8,38.1c0,16.5-15,29.9-33.6,29.9c-18.5,0-33.6-13.4-33.6-29.9
	C214.5,257.4,226.7,247.2,232.6,231.7z"/>
<g style="opacity:0.8;">
	<path style="fill:#F4E028;" d="M239.2,259.8c2.8-8,2.2-20,2.2-20s26.6,20.2,24.7,45.3c-0.8,10-8.2,18.1-18.4,18.1
		c-10.2,0-18.4-8.1-18.4-18.1C229.3,275.4,235.9,269.2,239.2,259.8z"/>
</g>
<g style="opacity:0.8;">
	<path style="fill:#FFFFFF;" d="M242.3,275.4c1.8-5,1.4-12.7,1.4-12.7s16.9,12.8,15.7,28.7c-0.5,6.3-5.2,11.5-11.7,11.5
		c-6.5,0-11.7-5.1-11.7-11.5C236,285.3,240.3,281.3,242.3,275.4z"/>
</g>
<g>
</g>
<g>
</g>
<g>
</g>
<g>
</g>
<g>
</g>
<g>
</g>
<g>
</g>
<g>
</g>
<g>
</g>
<g>
</g>
<g>
</g>
<g>
</g>
<g>
</g>
<g>
</g>
<g>
</g>
</svg>
